<svg height="510" width="720" xmlns="http://www.w3.org/2000/svg">
<rect height="510" fill="#555" width="720"></rect>
<text fill="#7f7" font-family="Courier New" font-size="12" xml:space="preserve">
<tspan x="10" y="26">13 megabytes installed</tspan>
<tspan x="10" y="42"></tspan>
<tspan x="10" y="58">node_modules</tspan>
<tspan x="10" y="74">└─┬ dependo@0.1.6 </tspan>
<tspan x="10" y="90">  ├── commander@2.6.0 </tspan>
<tspan x="10" y="106">  ├─┬ madge@0.5.5 </tspan>
<tspan x="10" y="122">  │ ├─┬ amdetective@0.2.1 </tspan>
<tspan x="10" y="138">  │ │ └── esprima@2.7.2 </tspan>
<tspan x="10" y="154">  │ ├── coffee-script@1.10.0 </tspan>
<tspan x="10" y="170">  │ ├── colors@1.1.2 </tspan>
<tspan x="10" y="186">  │ ├─┬ commander@2.9.0 </tspan>
<tspan x="10" y="202">  │ │ └── graceful-readlink@1.0.1 </tspan>
<tspan x="10" y="218">  │ ├── commondir@1.0.1 </tspan>
<tspan x="10" y="234">  │ ├─┬ detective@4.3.1 </tspan>
<tspan x="10" y="250">  │ │ ├── acorn@1.2.2 </tspan>
<tspan x="10" y="266">  │ │ └── defined@1.0.0 </tspan>
<tspan x="10" y="282">  │ ├─┬ detective-es6@1.1.5 </tspan>
<tspan x="10" y="298">  │ │ └─┬ node-source-walk@3.0.0 </tspan>
<tspan x="10" y="314">  │ │   ├─┬ babylon@6.8.2 </tspan>
<tspan x="10" y="330">  │ │   │ └─┬ babel-runtime@6.9.2 </tspan>
<tspan x="10" y="346">  │ │   │   ├── core-js@2.4.0 </tspan>
<tspan x="10" y="362">  │ │   │   └── regenerator-runtime@0.9.5 </tspan>
<tspan x="10" y="378">  │ │   └── object-assign@4.1.0 </tspan>
<tspan x="10" y="394">  │ ├─┬ graphviz@0.0.8 </tspan>
<tspan x="10" y="410">  │ │ └── temp@0.4.0 </tspan>
<tspan x="10" y="426">  │ ├── resolve@1.1.7 </tspan>
<tspan x="10" y="442">  │ ├── uglify-js@1.3.5 </tspan>
<tspan x="10" y="458">  │ └── walkdir@0.0.11 </tspan>
<tspan x="10" y="474">  ├── sha-1@0.1.1 </tspan>
<tspan x="10" y="490">  └── underscore@1.7.0</tspan>
</text>
</svg>
